<svg width="117" height="60" viewBox="0 0 117 60" fill="none" xmlns="http://www.w3.org/2000/svg">
<path d="M33.8986 15.464L32.7873 11.9052L29.8726 10.0874L25.195 13.2206L22.2805 11.9052L17.1408 11.119L16.8436 11.0731L16.8341 11.0742L11.7346 12.0599L8.82102 13.3753L3.87275 10.2037L1.22676 12.0215L0 15.5024L0.153345 19.5638L2.49264 23.0467L0.383891 28.5385L2.30122 37.3183L16.758 46.7955L31.1385 37.2788L33.0558 28.4991L30.9472 23.0062L33.2863 19.5232L33.8986 15.464ZM19.5573 42.9285L17.1418 43.4309L14.7645 43.0437L12.4252 40.6071L14.0358 41.3016L16.1445 41.1875L17.1418 40.5687L18.1772 41.0711L20.2881 41.1875L21.8986 40.4909L19.5573 42.9285ZM20.2869 40.5303L17.3712 39.9255V39.1116L20.4002 38.4009L21.3984 36.2739L20.4002 37.2019L19.2887 36.9789L17.1418 37.0089H15.0331L13.9216 37.3183L12.9243 36.3901L13.9216 38.5173L16.9505 39.1361V39.9479L14.0358 40.6455L12.4252 40.4525L11.1212 37.3951L11.0059 35.2679L13.1147 31.0519L14.9167 30.046L17.256 29.7366L19.3648 30.046L21.2821 30.974L23.431 35.1516L23.3158 37.2788L22.0119 40.334L20.2869 40.5303ZM32.2881 28.8095L30.1793 36.6611L24.1206 40.3351L22.3186 40.9549L23.6226 37.3951V34.9585H26.0379L27.84 33.3338L27.9553 29.775L26.8438 28.6538L24.4283 25.2891L21.7063 26.2951L21.2832 26.4881L20.9765 30.2401L19.1744 29.6213L17.0657 29.4283L14.7264 29.6213L13.0004 30.2401L12.6938 26.3719L12.2718 26.1789L9.54967 25.1729L7.13422 28.5375L6.02274 29.775L6.13802 33.3338L7.94008 34.9585H10.3555V37.3951L11.6595 40.9549L9.85741 40.3351L3.79766 36.6611L1.6889 28.8095L3.60731 23.6271L9.35931 14.265L12.0053 12.8333L16.8362 11.7794L22.1313 12.7693L24.6218 14.265L30.3739 23.6271L32.2881 28.8095Z" fill="white"/>
<path d="M40.8715 18.7966H39.6628L42.2443 10.1268H48.8803L46.2978 18.7966H47.5076L46.6584 21.6118H54.1438L53.0323 25.4736H38.8125L40.8715 18.7966ZM55.8749 18.8457H54.5023L57.0848 10.1759H71.4665L70.355 14.0377H62.674L62.3143 15.3583H69.3745L68.4271 18.8457H69.7988L69.7331 19.2446H62.5756L61.791 21.6609H69.4391L68.3276 25.5217H53.9461L55.8749 18.8457ZM73.2632 18.7966H71.6292L77.9048 10.1279H84.7038L85.8153 18.7966H87.2852L88.1682 25.4736H81.2721L81.0108 22.5837H77.2194C76.6315 23.5054 75.8468 24.4773 75.226 25.4736H68.4271L73.2632 18.7966ZM80.9124 18.995V18.7956H79.4414V15.384L77.6436 18.7966H79.1146L79.0163 18.996L80.9124 18.995ZM107.551 18.7966H109.022C107.551 22.0844 103.858 24.7013 99.2821 25.2987C95.9149 25.6966 92.1235 25.4981 88.6918 25.4981L90.6852 18.7966H89.2142L91.7957 10.1268C94.4766 10.1268 101.275 9.85269 104.021 10.7242C107.714 11.9702 108.663 15.0586 107.813 17.8738C107.78 18.1234 107.78 18.5225 107.551 18.7966ZM97.5488 13.9886L96.0777 18.8467H97.5488L96.6985 21.7367C99.6406 21.7367 101.275 20.8897 102.125 18.8467H100.654C100.752 18.5726 100.915 18.2483 101.013 17.8001C101.864 15.1087 100.916 13.9886 97.5488 13.9886Z" fill="white"/>
<path d="M39.2244 37.1548C39.8674 34.2628 40.5346 31.4442 41.1776 28.4764H47.3084C50.9674 28.4764 53.5626 30.3722 51.8568 34.586C51.4115 35.6335 50.8184 36.4816 50.151 37.1548H51.0658C49.508 38.7262 47.2343 39.25 44.7375 39.25L43.7242 43.8382H38.7051L40.2132 37.1302C40.2132 37.1548 39.2244 37.1548 39.2244 37.1548ZM45.355 32.3424C45.1573 33.3901 44.9097 34.4377 44.712 35.4351C47.2343 35.2346 48.1491 32.3424 45.355 32.3424ZM53.1672 37.1548H51.9309L56.6772 28.4764H61.819L62.6597 37.1548H63.7722L64.4152 43.8628H59.1994L59.0017 40.9696H56.0098C55.5646 41.8923 54.9714 42.8653 54.5017 43.8628H49.36L53.1672 37.1548ZM58.9022 37.3542V37.1548H57.7897V33.7389L56.4296 37.1558H57.5423L57.4683 37.3554H58.9022V37.3542ZM79.7434 37.1548L78.2596 43.8382H73.5133L71.486 37.1302H71.2143L69.6565 43.8382H64.8362L66.3939 37.1302H65.4792L67.4324 28.452H73.0438L74.7496 33.9128L75.9858 28.452H80.8062L78.8529 37.1302C78.8286 37.1548 79.7434 37.1548 79.7434 37.1548ZM94.6749 37.1548H95.7874C94.6749 40.4469 91.8819 43.0648 88.4205 43.6633C85.8739 44.0622 83.0069 43.8628 80.4107 43.8628L81.9188 37.1548H80.8062L82.7595 28.4764C84.7868 28.4764 89.9286 28.2023 92.0056 29.0749C94.7998 30.322 95.5156 33.4135 94.8738 36.2321C94.8483 36.4816 94.7246 36.8807 94.6749 37.1548ZM87.0362 32.3424L85.9236 37.1302H87.0362L86.3932 40.0223C88.6184 40.0223 89.8545 39.1742 90.4976 37.1302H89.3851C89.4591 36.8561 89.5828 36.5317 89.6568 36.0827C90.2987 33.4636 89.5088 32.3424 87.0362 32.3424ZM97.7904 37.1548H96.5541L101.3 28.4764H106.443L107.284 37.1548H108.396L109.039 43.8628H103.822L103.625 40.9696H100.758C100.312 41.8923 99.7195 42.8653 99.2498 43.8628H94.1081L97.7904 37.1548ZM103.575 37.3542V37.1548H102.462V33.7389L101.102 37.1558H102.215L102.141 37.3554H103.575V37.3542Z" fill="white"/>
<path d="M76.6371 57.6546C76.256 57.6546 75.9167 57.588 75.6184 57.4547C75.3204 57.3187 75.0846 57.1186 74.9109 56.8545C74.7398 56.5878 74.6543 56.2558 74.6543 55.8584C74.6543 55.5238 74.7153 55.2427 74.837 55.0153C74.9589 54.7878 75.1248 54.6047 75.3348 54.4662C75.5446 54.3276 75.7831 54.2229 76.05 54.1524C76.3196 54.0818 76.6022 54.0322 76.8976 54.0034C77.245 53.9668 77.5249 53.9328 77.7373 53.9013C77.9499 53.8674 78.1042 53.8177 78.2001 53.7523C78.296 53.687 78.3439 53.5903 78.3439 53.4622V53.4386C78.3439 53.1902 78.2661 52.998 78.1107 52.862C77.9578 52.7262 77.74 52.6581 77.4574 52.6581C77.1594 52.6581 76.9223 52.7249 76.7459 52.8582C76.5698 52.989 76.4531 53.1536 76.3961 53.3523L74.8643 53.2268C74.9421 52.8607 75.0949 52.5444 75.323 52.2777C75.5511 52.0085 75.8452 51.8018 76.2056 51.6581C76.5685 51.5117 76.9883 51.4385 77.4653 51.4385C77.797 51.4385 78.1145 51.4777 78.4178 51.556C78.7237 51.6345 78.9944 51.7562 79.2304 51.9208C79.4688 52.0855 79.6567 52.2973 79.7942 52.5563C79.9314 52.8124 80.0002 53.1197 80.0002 53.4779V57.5409H78.4295V56.7055H78.3828C78.2869 56.8937 78.1586 57.0597 77.998 57.2036C77.8372 57.3447 77.644 57.456 77.4185 57.5369C77.193 57.6154 76.9326 57.6546 76.6371 57.6546ZM77.1115 56.5016C77.3551 56.5016 77.5702 56.4533 77.7568 56.3565C77.9434 56.2571 78.09 56.1238 78.1962 55.9565C78.3024 55.7892 78.3555 55.5996 78.3555 55.3878V54.7486C78.3037 54.7825 78.2325 54.8138 78.1418 54.8427C78.0537 54.8687 77.9539 54.8936 77.8424 54.9172C77.731 54.9381 77.6195 54.9578 77.5081 54.976C77.3966 54.9917 77.2955 55.006 77.2048 55.0191C77.0103 55.0479 76.8406 55.0936 76.6955 55.1564C76.5503 55.2192 76.4376 55.3041 76.3572 55.4114C76.2768 55.5159 76.2366 55.6466 76.2366 55.8035C76.2366 56.031 76.3183 56.2049 76.4816 56.3251C76.6476 56.4428 76.8574 56.5016 77.1115 56.5016ZM83.045 59.9254C82.5084 59.9254 82.0484 59.8509 81.6647 59.7019C81.2838 59.5553 80.9805 59.3554 80.755 59.1017C80.5295 58.8482 80.3831 58.5632 80.3156 58.2469L81.8475 58.039C81.8941 58.1592 81.968 58.2716 82.0691 58.3763C82.1701 58.4808 82.3036 58.5645 82.4695 58.6273C82.6379 58.6926 82.8427 58.7252 83.0839 58.7252C83.444 58.7252 83.7409 58.6364 83.9741 58.4585C84.2101 58.2835 84.3279 57.9892 84.3279 57.5762V56.4741H84.258C84.1854 56.6415 84.0766 56.7996 83.9313 56.9486C83.7862 57.0976 83.5996 57.2193 83.3715 57.3134C83.1434 57.4075 82.8713 57.4547 82.5551 57.4547C82.1067 57.4547 81.6985 57.35 81.3304 57.1408C80.965 56.929 80.6733 56.6061 80.4556 56.1721C80.2404 55.7354 80.1329 55.1839 80.1329 54.5171C80.1329 53.8347 80.243 53.2647 80.4633 52.8071C80.6837 52.3497 80.9766 52.0072 81.3421 51.7797C81.7101 51.5523 82.1131 51.4385 82.5512 51.4385C82.8855 51.4385 83.1654 51.496 83.3909 51.6111C83.6164 51.7235 83.798 51.8646 83.9352 52.0346C84.0753 52.2019 84.1828 52.3667 84.258 52.5287H84.3202V51.517H85.9648V57.5997C85.9648 58.1122 85.8404 58.5409 85.5915 58.8861C85.3427 59.2313 84.998 59.4901 84.5573 59.6626C84.1192 59.8379 83.6151 59.9254 83.045 59.9254ZM83.08 56.1996C83.347 56.1996 83.5725 56.1329 83.7565 55.9997C83.9431 55.8637 84.0856 55.6702 84.1841 55.4191C84.2853 55.1656 84.3358 54.8623 84.3358 54.5092C84.3358 54.1563 84.2864 53.8504 84.188 53.5916C84.0895 53.3302 83.947 53.1274 83.7604 52.9837C83.5736 52.8399 83.347 52.7679 83.08 52.7679C82.8077 52.7679 82.5785 52.8424 82.3919 52.9916C82.2051 53.138 82.0639 53.3419 81.968 53.6033C81.8721 53.8647 81.8242 54.1667 81.8242 54.5092C81.8242 54.857 81.8721 55.1577 81.968 55.4114C82.0665 55.6623 82.2077 55.8571 82.3919 55.9957C82.5785 56.1317 82.8077 56.1996 83.08 56.1996ZM89.0736 57.6586C88.4593 57.6586 87.9306 57.533 87.4874 57.2821C87.0469 57.0284 86.7073 56.6702 86.4687 56.2075C86.2303 55.742 86.1112 55.1916 86.1112 54.5564C86.1112 53.9368 86.2303 53.3928 86.4687 52.9248C86.7073 52.4569 87.0429 52.0921 87.4758 51.8307C87.9111 51.5692 88.4218 51.4385 89.0076 51.4385C89.4016 51.4385 89.7682 51.5025 90.1078 51.6307C90.45 51.7562 90.748 51.9457 91.0021 52.1992C91.2587 52.4529 91.4582 52.7719 91.6009 53.1563C91.7434 53.538 91.8146 53.9851 91.8146 54.4975V54.9564H86.772V53.9209H90.2555C90.2555 53.6804 90.2037 53.4673 90.1001 53.2817C89.9964 53.0961 89.8526 52.951 89.6686 52.8464C89.487 52.7392 89.2759 52.6857 89.0349 52.6857C88.7834 52.6857 88.5605 52.7445 88.366 52.862C88.1742 52.9771 88.0239 53.1327 87.915 53.3288C87.8062 53.5224 87.7505 53.738 87.7479 53.976V54.9602C87.7479 55.2584 87.8023 55.5159 87.9111 55.733C88.0227 55.9499 88.1794 56.1172 88.3816 56.2349C88.5839 56.3526 88.8236 56.4114 89.1009 56.4114C89.2849 56.4114 89.4534 56.3852 89.6063 56.333C89.7593 56.2807 89.8901 56.2023 89.999 56.0976C90.1078 55.9931 90.1908 55.865 90.2478 55.7134L91.7796 55.8152C91.7018 56.1866 91.5425 56.5107 91.3015 56.7879C91.0629 57.0624 90.7546 57.2768 90.3761 57.4311C90.0003 57.5827 89.5661 57.6586 89.0736 57.6586ZM93.6211 54.0582V57.5409H91.9649V51.517H93.5433V52.5797H93.6134C93.7456 52.2294 93.9672 51.9523 94.2781 51.7482C94.5893 51.5417 94.9664 51.4385 95.4096 51.4385C95.8243 51.4385 96.1858 51.53 96.4943 51.713C96.8028 51.8961 97.0425 52.1575 97.2136 52.4974C97.3847 52.8347 97.4701 53.2374 97.4701 53.7053V57.5409H95.8138V54.0034C95.8165 53.6348 95.7232 53.3471 95.5339 53.1406C95.3447 52.9314 95.0842 52.8268 94.7525 52.8268C94.5296 52.8268 94.3326 52.8752 94.1615 52.972C93.993 53.0686 93.8608 53.2098 93.765 53.3954C93.6717 53.5786 93.6237 53.7995 93.6211 54.0582ZM100.543 57.6586C99.9314 57.6586 99.4052 57.5279 98.9647 57.2664C98.5266 57.0022 98.1896 56.6363 97.9538 56.1683C97.7205 55.7002 97.6038 55.1617 97.6038 54.5524C97.6038 53.9354 97.7218 53.3941 97.9576 52.9288C98.1962 52.4608 98.5344 52.096 98.9724 51.8346C99.4105 51.5706 99.9314 51.4385 100.535 51.4385C101.056 51.4385 101.512 51.534 101.904 51.7248C102.295 51.9156 102.605 52.1836 102.833 52.5287C103.061 52.8739 103.187 53.2791 103.21 53.7446H101.647C101.603 53.4439 101.486 53.2019 101.297 53.019C101.11 52.8334 100.865 52.7406 100.562 52.7406C100.306 52.7406 100.081 52.8111 99.8899 52.9524C99.7007 53.0908 99.5529 53.2936 99.4467 53.5603C99.3405 53.8268 99.2872 54.1497 99.2872 54.5288C99.2872 54.9132 99.3392 55.2401 99.4428 55.5093C99.549 55.7786 99.698 55.9838 99.8899 56.1251C100.081 56.2662 100.306 56.3369 100.562 56.3369C100.751 56.3369 100.921 56.2977 101.072 56.2192C101.224 56.1408 101.35 56.027 101.449 55.878C101.55 55.7264 101.616 55.5447 101.647 55.3329H103.21C103.184 55.793 103.06 56.1983 102.837 56.5486C102.616 56.8964 102.312 57.1684 101.923 57.3643C101.534 57.5605 101.074 57.6586 100.543 57.6586ZM104.362 59.7999C104.152 59.7999 103.955 59.7828 103.771 59.7488C103.59 59.7175 103.439 59.677 103.32 59.6274L103.694 58.3802C103.888 58.4402 104.063 58.473 104.218 58.4781C104.376 58.4834 104.513 58.4468 104.627 58.3684C104.743 58.2899 104.838 58.1565 104.91 57.9683L105.008 57.7135L102.865 51.517H104.607L105.844 55.9408H105.906L107.154 51.517H108.907L106.586 58.192C106.475 58.516 106.323 58.7986 106.131 59.0391C105.942 59.2822 105.702 59.4691 105.412 59.5998C105.122 59.7332 104.772 59.7999 104.362 59.7999Z" fill="white"/>
<path d="M111.939 8.45646V5.04374H113.553C113.819 5.04374 114.046 5.09153 114.236 5.1871C114.426 5.28267 114.569 5.41675 114.667 5.58941C114.768 5.76204 114.818 5.96551 114.818 6.19981C114.818 6.43719 114.766 6.6391 114.662 6.80559C114.558 6.97205 114.41 7.10001 114.218 7.1894C114.025 7.27571 113.794 7.31889 113.526 7.31889H112.462V6.61599H113.37C113.516 6.61599 113.628 6.58054 113.704 6.50962C113.781 6.43874 113.819 6.33545 113.819 6.19981C113.819 6.05492 113.781 5.94702 113.704 5.87611C113.628 5.80213 113.516 5.76512 113.37 5.76512H112.911V8.45646H111.939ZM114.176 6.9027L114.901 8.45646H113.837L113.186 6.9027H114.176ZM113.296 10.4911C112.789 10.4911 112.314 10.3956 111.871 10.2044C111.427 10.0133 111.038 9.74818 110.702 9.40907C110.365 9.06995 110.103 8.67689 109.913 8.22987C109.724 7.78285 109.629 7.30348 109.629 6.79172C109.629 6.27997 109.724 5.80058 109.913 5.35356C110.103 4.90656 110.365 4.5135 110.702 4.17438C111.038 3.83527 111.427 3.57015 111.871 3.379C112.314 3.18786 112.789 3.09229 113.296 3.09229C113.804 3.09229 114.279 3.18786 114.722 3.379C115.165 3.57015 115.555 3.83527 115.891 4.17438C116.227 4.5135 116.49 4.90656 116.679 5.35356C116.869 5.80058 116.964 6.27997 116.964 6.79172C116.964 7.30348 116.869 7.78285 116.679 8.22987C116.49 8.67689 116.227 9.06995 115.891 9.40907C115.555 9.74818 115.165 10.0133 114.722 10.2044C114.279 10.3956 113.804 10.4911 113.296 10.4911ZM113.296 9.45531C113.785 9.45531 114.228 9.33662 114.626 9.09924C115.026 8.85878 115.344 8.5366 115.579 8.13276C115.818 7.72889 115.937 7.28189 115.937 6.79172C115.937 6.30155 115.818 5.85453 115.579 5.45068C115.344 5.04682 115.026 4.7262 114.626 4.48882C114.225 4.24836 113.782 4.12813 113.296 4.12813C112.81 4.12813 112.367 4.24836 111.967 4.48882C111.566 4.7262 111.247 5.04682 111.009 5.45068C110.773 5.85453 110.656 6.30155 110.656 6.79172C110.656 7.28189 110.773 7.72889 111.009 8.13276C111.247 8.53352 111.566 8.85415 111.967 9.09461C112.367 9.33507 112.81 9.45531 113.296 9.45531Z" fill="white"/>
</svg>
